<svg width="17" height="16" viewBox="0 0 17 16" fill="none" xmlns="http://www.w3.org/2000/svg">
<path d="M3.25296 6.61474L1.27004 8.59766C0.456848 9.41086 0 10.5138 0 11.6638C0 12.8138 0.456848 13.9168 1.27004 14.73C2.08324 15.5432 3.18617 16 4.3362 16C5.48623 16 6.58916 15.5432 7.40235 14.73L10.0443 12.0866C10.5347 11.5961 10.9003 10.9952 11.1103 10.3342C11.3204 9.67327 11.3689 8.97156 11.2516 8.28799C11.1344 7.60443 10.8549 6.95896 10.4366 6.40576C10.0183 5.85257 9.4734 5.40779 8.84763 5.10876L8.0007 5.9557C7.91472 6.04183 7.83993 6.13846 7.77812 6.24331C8.26161 6.3823 8.70045 6.64506 9.05126 7.00563C9.40207 7.36619 9.6527 7.81207 9.77839 8.29919C9.90407 8.7863 9.90045 9.29778 9.76788 9.78306C9.63531 10.2683 9.37839 10.7106 9.02251 11.0662L6.38199 13.7082C5.8396 14.2505 5.10397 14.5553 4.33692 14.5553C3.56987 14.5553 2.83424 14.2505 2.29185 13.7082C1.74947 13.1658 1.44476 12.4301 1.44476 11.6631C1.44476 10.896 1.74947 10.1604 2.29185 9.61803L3.43796 8.47337C3.27625 7.8674 3.21378 7.23924 3.25296 6.6133V6.61474Z" fill="white"/>
<path d="M5.95697 3.91201C5.4666 4.40245 5.10103 5.00338 4.89095 5.66434C4.68087 6.3253 4.63242 7.02701 4.74965 7.71058C4.86688 8.39414 5.14638 9.03961 5.56468 9.59281C5.98299 10.146 6.52789 10.5908 7.15366 10.8898L8.27375 9.76827C7.78373 9.63683 7.33693 9.37873 6.97826 9.01991C6.61958 8.66109 6.36167 8.21418 6.23044 7.7241C6.0992 7.23402 6.09927 6.71803 6.23063 6.22799C6.36199 5.73794 6.62002 5.2911 6.97878 4.93237L9.6193 2.29041C10.1617 1.74802 10.8973 1.44331 11.6644 1.44331C12.4314 1.44331 13.1671 1.74802 13.7094 2.29041C14.2518 2.83279 14.5565 3.56843 14.5565 4.33547C14.5565 5.10252 14.2518 5.83816 13.7094 6.38054L12.5633 7.5252C12.7252 8.13222 12.7874 8.76091 12.7483 9.38527L14.7312 7.40235C15.5444 6.58916 16.0013 5.48623 16.0013 4.3362C16.0013 3.18617 15.5444 2.08324 14.7312 1.27004C13.9181 0.456848 12.8151 0 11.6651 0C10.5151 0 9.41213 0.456848 8.59894 1.27004L5.95697 3.91201Z" fill="white"/>
</svg>
